<svg xmlns="http://www.w3.org/2000/svg">
  <!-- Search icon -->
  <symbol id="search" viewBox="0 0 14 14" fill="currentColor">
    <path
			d="M13.8 12.2l-3.9-4c.6-.8 1.1-2 1.1-3.1 0-2.8-2.3-5-5-5-2.8 0-5 2.3-5 5 0 2.8 2.2 5 5 5 .8 0 1.7-.2 2.3-.5l3.9 4.3c.2.2.6.2.8 0l.8-.8c.3-.3.3-.7 0-.9zM6 8.1c-1.7 0-3-1.4-3-3 0-1.7 1.4-3 3-3s3 1.4 3 3-1.4 3-3 3z"
			fill-rule="evenodd"
		/>
  </symbol>
  <!-- Cross icon -->
  <symbol id="cross" viewBox="0 0 12 12" fill="currentColor">
		<path d="M9.5 3.5L8.5 2.5L6 5L3.5 2.5L2.5 3.5L5 6L2.5 8.5L3.5 9.5L6 7L8.5 9.5L9.5 8.5L7 6L9.5 3.5Z" />
	</symbol>
</svg>